<svg width="100" height="21" viewBox="0 0 100 21" fill="none" xmlns="http://www.w3.org/2000/svg">
<path d="M9.62567 20.5C4.2246 20.5 0 16.115 0 10.4733C0 4.85829 4.2246 0.5 9.62567 0.5C14.6791 0.5 18.6364 3.86898 19.3048 8.78877H15C14.5455 6.03476 12.4064 4.13636 9.67914 4.13636C6.39038 4.13636 4.17112 6.72995 4.17112 10.4733C4.17112 14.2433 6.39038 16.8636 9.67914 16.8636C12.4064 16.8636 14.5187 14.9385 15 12.1845H19.3048C18.6364 17.1578 14.6791 20.5 9.62567 20.5Z" fill="black"/>
<path d="M28.1319 5.55348C20.8859 5.55348 20.8859 8.81551 20.8859 12.9599C20.8859 17.131 23.9875 20.3663 28.1319 20.3663C32.2763 20.3663 35.3779 17.131 35.3779 12.9599C35.3779 8.81551 35.3779 5.55348 28.1319 5.55348ZM28.1319 8.84225C31.5544 8.84225 31.5544 10.3128 31.5544 12.9599C31.5544 15.607 29.9768 17.0508 28.1319 17.0508C26.287 17.0508 24.7094 15.607 24.7094 12.9599C24.7094 10.3128 24.7094 8.84225 28.1319 8.84225Z" fill="black"/>
<path d="M49.0953 20.0989L46.3948 10.8209L43.721 20.0989H40.0044L35.9402 5.82086H39.5498L41.983 14.8583L44.6033 5.82086H48.2664L50.8065 14.8583L53.2129 5.82086H56.876L52.7851 20.0989H49.0953Z" fill="black"/>
<path d="M64.6877 20.3663C60.5433 20.3663 57.4417 17.1043 57.4417 12.9599C57.4417 8.78877 57.4417 5.55348 64.6877 5.55348C71.9337 5.55348 71.9337 8.78877 71.9337 12.9599C71.9337 17.1043 68.8321 20.3663 64.6877 20.3663ZM64.6877 17.0775C66.5326 17.0775 68.1102 15.6069 68.1102 12.9599C68.1102 10.3128 68.1102 8.86898 64.6877 8.86898C61.2652 8.86898 61.2652 10.3128 61.2652 12.9599C61.2652 15.6069 62.8428 17.0775 64.6877 17.0775Z" fill="black"/>
<path d="M78.022 13.1738V20.0989H74.3054V5.82086H77.7279V8.57487C78.7707 6.75668 80.9899 5.66043 83.2894 5.66043V9.51069C80.1343 9.27005 78.022 10.0187 78.022 13.1738Z" fill="black"/>
<path d="M88.9365 20.0989H85.22V0.901069H88.9365V11.8636L94.1504 5.82086H98.4285L92.5194 12.6658L99.1237 20.0989H94.3911L88.9365 13.4679V20.0989Z" fill="black"/>
</svg>
